<svg width="311" height="330" viewBox="0 0 311 330" fill="none" xmlns="http://www.w3.org/2000/svg">
<g clip-path="url(#clip0)">
<path d="M311 73.1902H309.307V26.8313C309.307 23.3078 308.613 19.8187 307.265 16.5634C305.916 13.3081 303.939 10.3502 301.447 7.85871C298.955 5.3672 295.997 3.39082 292.741 2.04242C289.485 0.694017 285.995 2.7788e-06 282.471 0H184.233C180.708 -8.33612e-06 177.219 0.693994 173.963 2.04238C170.707 3.39077 167.748 5.36714 165.256 7.85865C162.764 10.3502 160.787 13.308 159.439 16.5633C158.09 19.8186 157.396 23.3077 157.396 26.8312V281.16C157.396 288.276 160.223 295.1 165.256 300.132C170.289 305.164 177.115 307.991 184.233 307.991H282.471C289.588 307.991 296.414 305.164 301.447 300.132C306.48 295.101 309.307 288.276 309.307 281.16V106.189H311L311 73.1902Z" fill="#222222"/>
<path d="M283.553 6.98061H270.73C271.32 8.42609 271.545 9.99437 271.386 11.5473C271.226 13.1003 270.687 14.5902 269.816 15.8859C268.946 17.1816 267.769 18.2432 266.391 18.9773C265.013 19.7114 263.476 20.0955 261.914 20.0956H205.635C204.074 20.0955 202.536 19.7115 201.158 18.9774C199.78 18.2432 198.604 17.1816 197.733 15.8859C196.862 14.5902 196.323 13.1003 196.164 11.5473C196.005 9.99436 196.23 8.42607 196.819 6.98059H184.842C179.527 6.98059 174.429 9.09165 170.671 12.8494C166.912 16.6071 164.801 21.7036 164.801 27.0178V280.973C164.801 286.287 166.912 291.384 170.671 295.142C174.429 298.899 179.527 301.01 184.842 301.01H283.553C286.185 301.01 288.791 300.492 291.223 299.485C293.654 298.478 295.864 297.002 297.725 295.142C299.586 293.281 301.062 291.072 302.069 288.641C303.076 286.21 303.595 283.605 303.595 280.973V27.0179C303.595 24.3865 303.076 21.781 302.069 19.3499C301.062 16.9189 299.586 14.71 297.725 12.8494C295.864 10.9887 293.654 9.5128 291.223 8.50584C288.791 7.49888 286.185 6.9806 283.553 6.98061Z" fill="white"/>
<path d="M239.379 283.023C230.656 283.027 222.197 280.033 215.419 274.544C208.641 269.054 203.956 261.402 202.15 252.87C200.343 244.338 201.525 235.445 205.497 227.68C209.468 219.916 215.989 213.752 223.965 210.222C231.941 206.692 240.889 206.01 249.308 208.291C257.727 210.572 265.107 215.677 270.209 222.75C275.312 229.823 277.828 238.435 277.336 247.142C276.843 255.849 273.372 264.122 267.505 270.575L275.448 279.478L271.484 281.159C265.352 283.759 259.352 281.229 255.984 279.209C250.808 281.718 245.131 283.022 239.379 283.023ZM239.379 213.218C234.528 213.22 229.741 214.33 225.385 216.464C221.029 218.598 217.219 221.699 214.245 225.531C211.272 229.363 209.213 233.823 208.228 238.572C207.242 243.321 207.356 248.232 208.559 252.93C209.763 257.628 212.025 261.989 215.172 265.68C218.319 269.37 222.269 272.292 226.719 274.223C231.169 276.154 236.001 277.042 240.847 276.82C245.692 276.598 250.423 275.271 254.678 272.941L256.374 272.009L257.952 273.131C259.755 274.442 261.802 275.378 263.973 275.885L258.975 270.283L261.166 268.225C264.348 265.261 266.883 261.671 268.61 257.68C270.338 253.689 271.22 249.384 271.203 245.036C271.193 236.6 267.837 228.513 261.871 222.548C255.905 216.583 247.816 213.228 239.379 213.218Z" fill="#E6E6E6"/>
<path d="M274.288 245.036C274.285 237.389 271.77 229.956 267.129 223.878C262.488 217.801 255.978 213.416 248.601 211.398C241.225 209.38 233.389 209.841 226.3 212.71C219.21 215.578 213.26 220.696 209.364 227.276C205.468 233.856 203.842 241.533 204.736 249.127C205.629 256.721 208.994 263.811 214.311 269.307C219.629 274.803 226.605 278.4 234.166 279.545C241.728 280.69 249.457 279.32 256.163 275.645C258.576 277.361 264.463 280.785 270.279 278.319L263.279 270.473C266.759 267.213 269.531 263.273 271.425 258.897C273.319 254.522 274.294 249.804 274.288 245.036Z" fill="white"/>
<path d="M246.344 237.899H221.399V240.215H246.344V237.899Z" fill="#00A7DC"/>
<path d="M264.876 245.911H221.399V248.227H264.876V245.911Z" fill="#E6E6E6"/>
<path d="M264.833 253.923H221.399V256.239H264.833V253.923Z" fill="#E6E6E6"/>
<path d="M239.379 114.169C230.656 114.173 222.197 111.179 215.419 105.69C208.641 100.2 203.956 92.5482 202.15 84.0162C200.343 75.4843 201.525 66.5908 205.497 58.8263C209.468 51.0617 215.989 44.898 223.965 41.368C231.941 37.838 240.889 37.1563 249.308 39.4371C257.727 41.7179 265.107 46.8226 270.209 53.8958C275.312 60.9689 277.828 69.5807 277.335 78.2878C276.843 86.9949 273.372 95.2682 267.505 101.721L275.448 110.623L271.484 112.304C265.352 114.905 259.352 112.374 255.984 110.355C250.808 112.864 245.131 114.168 239.379 114.169ZM239.379 44.364C234.528 44.3654 229.741 45.4756 225.385 47.6096C221.029 49.7436 217.219 52.8449 214.245 56.6766C211.272 60.5083 209.213 64.9689 208.228 69.7177C207.242 74.4664 207.356 79.3775 208.559 84.0757C209.763 88.7739 212.025 93.1348 215.172 96.8253C218.319 100.516 222.269 103.438 226.719 105.369C231.168 107.3 236.001 108.188 240.847 107.966C245.692 107.743 250.423 106.417 254.678 104.087L256.374 103.154L257.952 104.277C259.755 105.588 261.802 106.524 263.973 107.031L258.975 101.429L261.166 99.3708C264.348 96.4068 266.883 92.8166 268.61 88.8258C270.338 84.8349 271.22 80.53 271.203 76.1815C271.193 67.7459 267.837 59.6586 261.871 53.6937C255.905 47.7288 247.816 44.3735 239.379 44.364V44.364Z" fill="#E6E6E6"/>
<path d="M274.288 76.1814C274.285 68.535 271.77 61.1013 267.129 55.0237C262.488 48.9461 255.978 44.5612 248.601 42.5433C241.225 40.5253 233.389 40.9862 226.3 43.8551C219.21 46.7239 213.26 51.8418 209.364 58.4215C205.468 65.0013 203.842 72.6785 204.736 80.2725C205.629 87.8665 208.994 94.9566 214.311 100.452C219.629 105.948 226.605 109.545 234.166 110.69C241.728 111.835 249.457 110.465 256.163 106.79C258.577 108.507 264.463 111.931 270.279 109.464L263.279 101.619C266.759 98.3588 269.531 94.4188 271.425 90.043C273.319 85.6673 274.294 80.9492 274.288 76.1814Z" fill="white"/>
<path d="M246.344 69.0452H221.399V71.3612H246.344V69.0452Z" fill="#00A7DC"/>
<path d="M264.876 77.057H221.399V79.373H264.876V77.057Z" fill="#E6E6E6"/>
<path d="M264.833 85.0688H221.399V87.3849H264.833V85.0688Z" fill="#E6E6E6"/>
<path d="M287.733 117.413C290.772 117.413 293.236 114.95 293.236 111.912C293.236 108.874 290.772 106.41 287.733 106.41C284.694 106.41 282.23 108.874 282.23 111.912C282.23 114.95 284.694 117.413 287.733 117.413Z" fill="#E6E6E6"/>
<path d="M287.733 286.268C290.772 286.268 293.236 283.805 293.236 280.766C293.236 277.728 290.772 275.265 287.733 275.265C284.694 275.265 282.23 277.728 282.23 280.766C282.23 283.805 284.694 286.268 287.733 286.268Z" fill="#E6E6E6"/>
<path d="M166.211 201.444C162.184 203.858 155.01 206.883 147.678 203.774L142.939 201.764L152.436 191.12C144.858 182.766 140.665 171.888 140.676 160.609C140.688 149.33 144.903 138.461 152.499 130.122C160.094 121.783 170.526 116.573 181.756 115.51C192.987 114.446 204.211 117.605 213.238 124.37C222.265 131.134 228.446 141.019 230.576 152.095C232.705 163.171 230.63 174.643 224.755 184.271C218.88 193.9 209.627 200.994 198.802 204.169C187.978 207.344 176.358 206.373 166.211 201.444H166.211Z" fill="#00A7DC"/>
<path opacity="0.1" d="M224.325 160.373C224.324 149.944 220.418 139.893 213.375 132.199C206.333 124.506 196.664 119.728 186.274 118.806C187.49 118.699 188.72 118.641 189.963 118.641C201.029 118.649 211.639 123.048 219.461 130.874C227.283 138.699 231.677 149.31 231.677 160.373C231.677 171.436 227.283 182.047 219.461 189.872C211.639 197.697 201.029 202.097 189.963 202.104C188.722 202.104 187.494 202.046 186.28 201.94C196.669 201.016 206.336 196.237 213.377 188.544C220.419 180.851 224.324 170.801 224.325 160.373Z" fill="black"/>
<path d="M191.924 152.051H162.098V154.82H191.924V152.051Z" fill="white"/>
<path d="M214.082 161.63H162.098V164.4H214.082V161.63Z" fill="white"/>
<path d="M214.031 171.21H162.098V173.979H214.031V171.21Z" fill="white"/>
<path d="M0.423281 330H161.693C161.806 330 161.913 329.955 161.993 329.876C162.072 329.797 162.117 329.689 162.117 329.577C162.117 329.465 162.072 329.357 161.993 329.278C161.913 329.198 161.806 329.154 161.693 329.154H0.423281C0.31102 329.154 0.203356 329.198 0.123976 329.278C0.0445952 329.357 0 329.465 0 329.577C0 329.689 0.0445952 329.797 0.123976 329.876C0.203356 329.955 0.31102 330 0.423281 330Z" fill="#CCCCCC"/>
<path d="M77.7927 147.915L78.4301 144.728C78.4301 144.728 87.8055 141.542 88.8545 147.915H77.7927Z" fill="#E6E6E6"/>
<path d="M95.786 323.361L101.932 323.361L104.856 299.658L95.7847 299.659L95.786 323.361Z" fill="#9F616A"/>
<path d="M94.218 321.355L106.323 321.355H106.323C108.369 321.355 110.331 322.167 111.777 323.614C113.224 325.06 114.037 327.021 114.037 329.067V329.317L94.2184 329.318L94.218 321.355Z" fill="#141414"/>
<path d="M66.1563 323.361L72.3028 323.361L75.2268 299.658L66.155 299.659L66.1563 323.361Z" fill="#9F616A"/>
<path d="M64.5883 321.355L76.6928 321.355H76.6933C78.7391 321.355 80.7011 322.167 82.1477 323.614C83.5944 325.06 84.4071 327.021 84.4073 329.067V329.317L64.5887 329.318L64.5883 321.355Z" fill="#141414"/>
<path d="M68.8691 161.297L61.8575 160.66L57.3957 181.69L58.0331 200.808L65.0448 226.299L74.6058 220.564L69.5066 194.436L68.8691 161.297Z" fill="#141414"/>
<path d="M64.431 224.069L66.0005 237.451L67.4748 268.678L64.0886 315.212L76.1991 314.562L82.1352 266.129L85.7601 243.824L90.8594 269.315L94.0467 317.111L106.476 316.115V269.147L106.795 234.902L102.333 221.52L64.431 224.069Z" fill="#141414"/>
<path d="M90.5408 148.552C90.5408 148.552 86.079 142.179 77.7927 146.64L73.9683 151.738L61.8576 160.66L64.4072 190.612L61.2202 228.211L106.476 227.574L98.8271 189.975V149.826L90.5408 148.552Z" fill="#141414"/>
<path opacity="0.25" d="M66.0006 171.238L62.3459 214.928L66.9568 191.249L66.0006 171.238Z" fill="black"/>
<path d="M142.075 207.869C141.424 208.09 140.733 208.166 140.05 208.091C139.367 208.016 138.708 207.792 138.121 207.435C137.534 207.078 137.032 206.597 136.651 206.025C136.27 205.453 136.019 204.805 135.915 204.126L125.486 201.549L125.507 194.83L140.183 198.676C141.336 198.578 142.485 198.907 143.412 199.599C144.339 200.291 144.98 201.3 145.213 202.433C145.447 203.566 145.256 204.745 144.677 205.747C144.099 206.749 143.173 207.504 142.075 207.869Z" fill="#9F616A"/>
<path d="M131.17 194.75L129.416 204.795L133.811 205.562L135.565 195.517L131.17 194.75Z" fill="#E6E6E6"/>
<path d="M89.5869 139.623C95.7897 136.233 98.0693 128.457 94.6785 122.256C91.2878 116.054 83.5107 113.775 77.3079 117.165C71.1051 120.555 68.8255 128.331 72.2163 134.532C75.607 140.734 83.3841 143.013 89.5869 139.623Z" fill="#9F616A"/>
<path d="M84.4035 139.682C81.272 140.434 77.9728 139.995 75.1468 138.451C72.3207 136.907 70.1694 134.368 69.1107 131.328C68.052 128.287 68.1614 124.961 69.4177 121.996C70.6741 119.032 72.9876 116.639 75.9091 115.285C78.1589 114.281 80.6192 113.839 83.0778 113.998C86.9058 114.2 90.6264 115.614 94.4584 115.51L95.0138 116.403L97.1069 115.895L97.5555 117.556L98.1068 117.537C99.0944 119.372 97.5054 121.999 95.4213 121.977C94.5962 121.968 93.816 121.625 93.0091 121.452C92.2023 121.279 91.2521 121.322 90.6957 121.931C89.9726 122.723 90.2874 123.959 90.4382 125.02C90.5889 126.082 90.2124 127.512 89.1406 127.546C88.5931 127.564 88.0723 127.171 87.5343 127.275C86.9077 127.395 86.5909 128.151 86.6824 128.783C86.8376 129.402 87.0907 129.993 87.4321 130.533C88.9858 133.633 87.6739 137.852 84.6353 139.525" fill="#141414"/>
<path d="M95.7848 152.289L98.8271 149.826C98.8271 149.826 104.967 149.4 104.856 155.907L114.681 186.633L133.529 193.308L130.989 206.427L104.322 196.271L90.7771 173.825L95.7848 152.289Z" fill="#141414"/>
</g>
<defs>
<clipPath id="clip0">
<rect width="311" height="330" fill="white"/>
</clipPath>
</defs>
</svg>
